#!OML:ASF H:\Pregnant\Project 1\Capture day 1\Session 1\femalepreg.ASF
:FULLY-SPECIFIED
:DEGREES
273
root 7.83941 15.9469 14.7023 21.3316 -2.09709 -0.369862
lowerback -9.67592 -2.40396 6.08601
upperback -4.09591 -3.90971 7.5208
thorax 1.26889 -1.97047 4.01368
lowerneck -7.56644 -6.24115 0.79373
upperneck 15.9078 -8.30957 -2.08963
head 5.93188 -4.14595 -1.38533
rclavicle 1.15295e-014 -2.8625e-014
rhumerus -32.4392 -14.7012 -65.2657
rradius 37.2895
rwrist -8.46593
rhand -15.6528 -15.9889
rfingers 7.12502
rthumb 10.535 -45.7049
lclavicle 1.15295e-014 -2.8625e-014
lhumerus -41.5652 11.3147 63.8934
lradius 42.0456
lwrist 40.7678
lhand -21.7929 -7.17794
lfingers 7.12502
lthumb 4.60875 22.7519
rfemur -30.4453 11.7259 24.4802
rtibia 26.973
rfoot -11.7529 -4.31661
rtoes -11.8582
lfemur -73.6359 -1.52218 -30.5836
ltibia 97.8808
lfoot -3.34415 6.77619
ltoes -18.802
274
root 7.81972 15.922 14.7783 21.3611 -2.55846 -0.393077
lowerback -9.76741 -2.43426 5.89314
upperback -4.01035 -3.94479 7.20749
thorax 1.40187 -1.98564 3.77843
lowerneck -7.67133 -6.28194 0.49302
upperneck 15.7912 -8.37573 -1.75568
head 5.94111 -4.17067 -1.24074
rclavicle -1.15295e-014 -4.6118e-014
rhumerus -32.4749 -14.7393 -65.8499
rradius 36.7851
rwrist -8.27751
rhand -15.1817 -16.0354
rfingers 7.12502
rthumb 10.9895 -45.7278
lclavicle -1.15295e-014 -4.6118e-014
lhumerus -41.1297 11.425 63.5345
lradius 42.1617
lwrist 40.946
lhand -21.9423 -7.209
lfingers 7.12502
lthumb 4.4645 22.7239
rfemur -30.5356 11.774 24.6114
rtibia 27.6087
rfoot -12.2938 -4.08597
rtoes -11.5286
lfemur -73.3181 -1.36249 -30.421
ltibia 95.2048
lfoot -3.38697 6.7996
ltoes -18.9766
275
root 7.80003 15.8978 14.8552 21.4075 -2.99999 -0.433396
lowerback -9.86746 -2.46584 5.71494
upperback -3.93742 -3.98132 6.90273
thorax 1.52552 -2.00176 3.54468
lowerneck -7.77973 -6.32678 0.209898
upperneck 15.6832 -8.44751 -1.43218
head 5.95263 -4.19765 -1.1031
rclavicle 1.94809e-014 -4.13472e-014
rhumerus -32.5397 -14.7435 -66.4121
rradius 36.3164
rwrist -8.06683
rhand -14.6924 -16.0657
rfingers 7.12502
rthumb 11.4614 -45.7323
lclavicle 1.94809e-014 -4.13472e-014
lhumerus -40.6995 11.5403 63.1928
lradius 42.2515
lwrist 41.1274
lhand -22.0094 -7.1996
lfingers 7.12502
lthumb 4.39965 22.7347
rfemur -30.6003 11.8176 24.7571
rtibia 28.1801
rfoot -12.8175 -3.84929
rtoes -11.105
lfemur -72.9671 -1.21109 -30.2353
ltibia 92.4602
lfoot -3.38682 6.74856
ltoes -19.2518
276
root 7.78035 15.8744 14.9335 21.4632 -3.41995 -0.490893
lowerback -9.97808 -2.49996 5.55614
upperback -3.87175 -4.02216 6.60404
thorax 1.64615 -2.02015 3.30647
lowerneck -7.88025 -6.37597 -0.0554362
upperneck 15.5739 -8.52593 -1.11513
head 5.96157 -4.22722 -0.970564
rclavicle 5.08889e-014 -1.74931e-014
rhumerus -32.6351 -14.7016 -66.9629
rradius 35.8959
rwrist -7.84859
rhand -14.2072 -16.0713
rfingers 7.12502
rthumb 11.9293 -45.7114
lclavicle 5.08889e-014 -1.74931e-014
lhumerus -40.2726 11.6635 62.863
lradius 42.3126
lwrist 41.2962
lhand -22.0125 -7.13974
lfingers 7.12502
lthumb 4.39673 22.7946
rfemur -30.6275 11.8634 24.9176
rtibia 28.6833
rfoot -13.3187 -3.61274
rtoes -10.6156
lfemur -72.5735 -1.07122 -30.0245
ltibia 89.6548
lfoot -3.34349 6.62596
ltoes -19.6307
277
root 7.76089 15.8517 15.0132 21.5154 -3.82476 -0.56742
lowerback -10.0805 -2.53495 5.41195
upperback -3.81217 -4.06322 6.31615
thorax 1.75522 -2.03885 3.07258
lowerneck -7.98548 -6.42785 -0.308574
upperneck 15.4772 -8.60762 -0.808647
head 5.97462 -4.25823 -0.844134
rclavicle 1.03368e-014 -1.90833e-014
rhumerus -32.7639 -14.5985 -67.4967
rradius 35.5249
rwrist -7.64034
rhand -13.752 -16.0618
rfingers 7.12502
rthumb 12.3682 -45.676
lclavicle 1.03368e-014 -1.90833e-014
lhumerus -39.8534 11.7948 62.5538
lradius 42.342
lwrist 41.4403
lhand -21.9566 -7.05423
lfingers 7.12502
lthumb 4.45072 22.879
rfemur -30.6007 11.9164 25.0941
rtibia 29.1164
rfoot -13.7946 -3.37623
rtoes -10.0998
lfemur -72.124 -0.937598 -29.7884
ltibia 86.7971
lfoot -3.25426 6.44291
ltoes -20.1056
278
root 7.74148 15.8296 15.0937 21.5724 -4.20476 -0.659403
lowerback -10.1745 -2.5735 5.27525
upperback -3.7648 -4.10721 6.04254
thorax 1.84707 -2.05933 2.85038
lowerneck -8.08698 -6.48213 -0.557268
upperneck 15.389 -8.69199 -0.507287
head 5.98965 -4.2905 -0.720427
rclavicle 2.54444e-014 -4.13472e-014
rhumerus -32.9297 -14.4256 -68.0117
rradius 35.2077
rwrist -7.45589
rhand -13.3282 -16.0328
rfingers 7.12502
rthumb 12.7768 -45.6219
lclavicle 2.54444e-014 -4.13472e-014
lhumerus -39.4471 11.9256 62.2729
lradius 42.3469
lwrist 41.562
lhand -21.8562 -6.94698
lfingers 7.12502
lthumb 4.54766 22.9842
rfemur -30.5308 11.9706 25.2856
rtibia 29.4793
rfoot -14.2387 -3.15419
rtoes -9.57569
lfemur -71.6385 -0.823707 -29.5225
ltibia 83.8969
lfoot -3.10065 6.22233
ltoes -20.6042
279
root 7.72245 15.8082 15.1752 21.6168 -4.5692 -0.767689
lowerback -10.2476 -2.6129 5.14766
upperback -3.7173 -4.15077 5.78177
thorax 1.9275 -2.07974 2.63801
lowerneck -8.20928 -6.53715 -0.800349
upperneck 15.3185 -8.77702 -0.211012
head 6.01374 -4.32273 -0.60061
rclavicle 1.94809e-014 1.43125e-014
rhumerus -33.1168 -14.1914 -68.5089
rradius 34.9328
rwrist -7.28835
rhand -12.9492 -15.9944
rfingers 7.12502
rthumb 13.1422 -45.5603
lclavicle 1.94809e-014 1.43125e-014
lhumerus -39.045 12.0595 62.024
lradius 42.3236
lwrist 41.6468
lhand -21.726 -6.82565
lfingers 7.12502
lthumb 4.67332 23.1028
rfemur -30.3987 12.0285 25.4931
rtibia 29.7723
rfoot -14.656 -2.9447
rtoes -9.06754
lfemur -71.0968 -0.724536 -29.2265
ltibia 80.9669
lfoot -2.88878 6.00062
ltoes -21.1728
280
root 7.70385 15.7876 15.2578 21.648 -4.91952 -0.890933
lowerback -10.3014 -2.65091 5.03148
upperback -3.66869 -4.19149 5.53019
thorax 1.998 -2.09887 2.43049
lowerneck -8.34163 -6.59492 -1.03852
upperneck 15.2581 -8.86606 0.0852129
head 6.04294 -4.35628 -0.482661
rclavicle 1.13307e-014 2.06736e-014
rhumerus -33.3323 -13.8853 -68.9962
rradius 34.7121
rwrist -7.15951
rhand -12.6228 -15.9562
rfingers 7.12502
rthumb 13.4567 -45.5015
lclavicle 1.13307e-014 2.06736e-014
lhumerus -38.6444 12.1853 61.8086
lradius 42.2733
lwrist 41.6979
lhand -21.5959 -6.69919
lfingers 7.12502
lthumb 4.79895 23.2265
rfemur -30.2064 12.0866 25.7155
rtibia 29.9991
rfoot -15.0483 -2.7466
rtoes -8.59577
lfemur -70.5046 -0.645724 -28.8968
ltibia 78.0264
lfoot -2.62276 5.79996
ltoes -21.778
281
root 7.68577 15.7675 15.341 21.6657 -5.25848 -1.02636
lowerback -10.3375 -2.68525 4.92398
upperback -3.60924 -4.22705 5.28568
thorax 2.06967 -2.11529 2.22699
lowerneck -8.51108 -6.65521 -1.26726
upperneck 15.2097 -8.95895 0.38009
head 6.08226 -4.39063 -0.368746
rclavicle 1.88845e-014 -4.6118e-014
rhumerus -33.5516 -13.5307 -69.4763
rradius 34.5264
rwrist -7.05913
rhand -12.3664 -15.9079
rfingers 7.12502
rthumb 13.7039 -45.4367
lclavicle 1.88845e-014 -4.6118e-014
lhumerus -38.2286 12.3003 61.634
lradius 42.2
lwrist 41.7168
lhand -21.4679 -6.59315
lfingers 7.12502
lthumb 4.92261 23.3297
rfemur -29.9598 12.1492 25.9485
rtibia 30.1657
rfoot -15.4147 -2.56518
rtoes -8.19428
lfemur -69.8712 -0.591439 -28.5318
ltibia 75.0949
lfoot -2.29898 5.63893
ltoes -22.3916
